<svg xmlns="http://www.w3.org/2000/svg" viewBox="0 0 800 200" preserveAspectRatio="xMidYMax slice">
  <g fill="currentColor" opacity="0.08">
    <!-- Eiffel Tower -->
    <path d="M60 200 L75 80 L70 80 L70 70 L80 70 L80 80 L75 80 L90 200 Z M72 110 L78 110 L76 90 L74 90 Z M68 140 L82 140 L80 120 L70 120 Z"/>
    <!-- Taj Mahal -->
    <path d="M180 200 L180 130 Q180 100 200 80 Q220 100 220 130 L220 200 Z M190 200 L190 110 Q190 95 200 85 Q210 95 210 110 L210 200 Z M170 200 L170 140 L175 135 L180 140 L180 200 Z M220 200 L220 140 L225 135 L230 140 L230 200 Z"/>
    <!-- Big Ben -->
    <path d="M320 200 L320 60 L315 60 L315 55 L335 55 L335 60 L330 60 L330 200 Z M322 80 L328 80 L328 70 L322 70 Z M320 100 L330 100 L330 90 L320 90 Z"/>
    <!-- Leaning Tower of Pisa -->
    <path d="M420 200 L430 50 L450 55 L440 200 Z M432 70 L448 73 L447 65 L433 62 Z M434 90 L446 92 L445 84 L435 82 Z"/>
    <!-- Sydney Opera House -->
    <path d="M520 200 Q520 120 560 100 Q580 120 580 200 Z M540 200 Q540 140 565 125 Q575 140 575 200 Z M555 200 Q555 160 570 150 Q575 160 575 200 Z"/>
    <!-- Christ the Redeemer -->
    <path d="M660 200 L660 90 Q660 70 670 60 Q680 70 680 90 L680 200 Z M650 85 Q660 75 670 75 Q680 75 690 85 L690 90 Q680 80 670 80 Q660 80 650 90 Z M665 65 L675 65 L675 55 L665 55 Z"/>
    <!-- Pyramids -->
    <path d="M740 200 L760 120 L780 200 Z M765 200 L775 150 L785 200 Z"/>
  </g>
</svg>
