<svg xmlns="http://www.w3.org/2000/svg" viewBox="0 0 1200 600" preserveAspectRatio="xMidYMid slice">
  <g fill="currentColor" opacity="0.04">
    <!-- Simplified world map silhouette -->
    <path d="M180 180 Q200 150 250 160 Q280 140 320 150 Q350 130 400 140 Q420 120 460 130 Q500 110 550 120 Q580 100 630 110 Q660 90 720 100 Q750 80 800 95 Q830 75 880 90 Q920 70 980 85 Q1020 65 1080 80 L1100 120 Q1080 160 1040 170 Q1000 200 950 190 Q900 220 850 210 Q800 240 750 230 Q700 260 650 250 Q600 280 550 270 Q500 300 450 290 Q400 320 350 310 Q300 340 250 330 Q200 360 150 350 Q120 320 100 280 Q80 240 100 200 Q120 160 150 140 Q170 120 180 180Z"/>
    <path d="M200 380 Q220 360 260 370 Q290 350 330 360 Q360 340 410 350 Q440 330 490 340 Q520 320 570 330 Q600 310 660 320 Q690 300 750 310 Q780 290 840 300 Q870 280 930 290 Q960 270 1020 280 Q1050 260 1100 270 L1120 310 Q1100 350 1060 360 Q1020 390 970 380 Q920 410 870 400 Q820 430 770 420 Q720 450 670 440 Q620 470 570 460 Q520 490 470 480 Q420 510 370 500 Q320 530 270 520 Q220 550 170 540 Q140 510 120 470 Q100 430 120 390 Q140 350 170 330 Q190 310 200 380Z"/>
  </g>
</svg>
